<?xml version="1.0" encoding="UTF-8" standalone="no"?>
<!DOCTYPE svg PUBLIC "-//W3C//DTD SVG 1.1//EN"
 "http://www.w3.org/Graphics/SVG/1.1/DTD/svg11.dtd">
<!-- Generated by graphviz version 12.2.0 (20241103.1931)
 -->
<!-- Title: src/Grain.h Pages: 1 -->
<svg width="213pt" height="138pt"
 viewBox="0.00 0.00 212.88 137.75" xmlns="http://www.w3.org/2000/svg" xmlns:xlink="http://www.w3.org/1999/xlink">
<g id="graph0" class="graph" transform="scale(1 1) rotate(0) translate(4 133.75)">
<title>src/Grain.h</title>
<!-- Node1 -->
<g id="Node000001" class="node">
<title>Node1</title>
<g id="a_Node000001"><a xlink:title=" ">
<polygon fill="#999999" stroke="#666666" points="122.5,-129.75 59.25,-129.75 59.25,-110.5 122.5,-110.5 122.5,-129.75"/>
<text text-anchor="middle" x="90.88" y="-116.25" font-family="Helvetica,sans-Serif" font-size="10.00">src/Grain.h</text>
</a>
</g>
</g>
<!-- Node2 -->
<g id="Node000002" class="node">
<title>Node2</title>
<g id="a_Node000002"><a xlink:href="_grain_8cpp.html" target="_top" xlink:title=" ">
<polygon fill="white" stroke="#666666" points="73.75,-74.5 0,-74.5 0,-55.25 73.75,-55.25 73.75,-74.5"/>
<text text-anchor="middle" x="36.88" y="-61" font-family="Helvetica,sans-Serif" font-size="10.00">src/Grain.cpp</text>
</a>
</g>
</g>
<!-- Node1&#45;&gt;Node2 -->
<g id="edge1_Node000001_Node000002" class="edge">
<title>Node1&#45;&gt;Node2</title>
<g id="a_edge1_Node000001_Node000002"><a xlink:title=" ">
<path fill="none" stroke="#63b8ff" d="M73.84,-102.32C64.61,-93.23 53.58,-82.35 45.99,-74.86"/>
<polygon fill="#63b8ff" stroke="#63b8ff" points="71.3,-104.74 80.88,-109.27 76.22,-99.76 71.3,-104.74"/>
</a>
</g>
</g>
<!-- Node3 -->
<g id="Node000003" class="node">
<title>Node3</title>
<g id="a_Node000003"><a xlink:href="_vibrosonics_a_p_i_8h.html" target="_top" xlink:title=" ">
<polygon fill="white" stroke="#666666" points="199.62,-74.5 92.12,-74.5 92.12,-55.25 199.62,-55.25 199.62,-74.5"/>
<text text-anchor="middle" x="145.88" y="-61" font-family="Helvetica,sans-Serif" font-size="10.00">src/VibrosonicsAPI.h</text>
</a>
</g>
</g>
<!-- Node1&#45;&gt;Node3 -->
<g id="edge2_Node000001_Node000003" class="edge">
<title>Node1&#45;&gt;Node3</title>
<g id="a_edge2_Node000001_Node000003"><a xlink:title=" ">
<path fill="none" stroke="#63b8ff" d="M108.23,-102.32C117.62,-93.23 128.86,-82.35 136.6,-74.86"/>
<polygon fill="#63b8ff" stroke="#63b8ff" points="105.79,-99.81 101.04,-109.28 110.66,-104.84 105.79,-99.81"/>
</a>
</g>
</g>
<!-- Node4 -->
<g id="Node000004" class="node">
<title>Node4</title>
<g id="a_Node000004"><a xlink:href="_vibrosonics_a_p_i_8cpp.html" target="_top" xlink:title=" ">
<polygon fill="white" stroke="#666666" points="204.88,-19.25 86.88,-19.25 86.88,0 204.88,0 204.88,-19.25"/>
<text text-anchor="middle" x="145.88" y="-5.75" font-family="Helvetica,sans-Serif" font-size="10.00">src/VibrosonicsAPI.cpp</text>
</a>
</g>
</g>
<!-- Node3&#45;&gt;Node4 -->
<g id="edge3_Node000003_Node000004" class="edge">
<title>Node3&#45;&gt;Node4</title>
<g id="a_edge3_Node000003_Node000004"><a xlink:title=" ">
<path fill="none" stroke="#63b8ff" d="M145.88,-43.63C145.88,-35.34 145.88,-26.17 145.88,-19.61"/>
<polygon fill="#63b8ff" stroke="#63b8ff" points="142.38,-43.57 145.88,-53.57 149.38,-43.57 142.38,-43.57"/>
</a>
</g>
</g>
</g>
</svg>
