<?xml version="1.0" encoding="UTF-8" standalone="no"?>
<!DOCTYPE svg PUBLIC "-//W3C//DTD SVG 1.1//EN"
 "http://www.w3.org/Graphics/SVG/1.1/DTD/svg11.dtd">
<!-- Generated by graphviz version 12.2.0 (20241103.1931)
 -->
<!-- Title: src/Grain.h Pages: 1 -->
<svg width="246pt" height="138pt"
 viewBox="0.00 0.00 245.62 137.75" xmlns="http://www.w3.org/2000/svg" xmlns:xlink="http://www.w3.org/1999/xlink">
<g id="graph0" class="graph" transform="scale(1 1) rotate(0) translate(4 133.75)">
<title>src/Grain.h</title>
<!-- Node1 -->
<g id="Node000001" class="node">
<title>Node1</title>
<g id="a_Node000001"><a xlink:title=" ">
<polygon fill="#999999" stroke="#666666" points="133.5,-129.75 70.25,-129.75 70.25,-110.5 133.5,-110.5 133.5,-129.75"/>
<text text-anchor="middle" x="101.88" y="-116.25" font-family="Helvetica,sans-Serif" font-size="10.00">src/Grain.h</text>
</a>
</g>
</g>
<!-- Node2 -->
<g id="Node000002" class="node">
<title>Node2</title>
<g id="a_Node000002"><a xlink:href="_grain_8cpp.html" target="_top" xlink:title=" ">
<polygon fill="white" stroke="#666666" points="73.75,-74.5 0,-74.5 0,-55.25 73.75,-55.25 73.75,-74.5"/>
<text text-anchor="middle" x="36.88" y="-61" font-family="Helvetica,sans-Serif" font-size="10.00">src/Grain.cpp</text>
</a>
</g>
</g>
<!-- Node1&#45;&gt;Node2 -->
<g id="edge1_Node000001_Node000002" class="edge">
<title>Node1&#45;&gt;Node2</title>
<g id="a_edge1_Node000001_Node000002"><a xlink:title=" ">
<path fill="none" stroke="#63b8ff" d="M82.09,-102.91C70.8,-93.67 57.08,-82.43 47.74,-74.77"/>
<polygon fill="#63b8ff" stroke="#63b8ff" points="79.72,-105.5 89.68,-109.13 84.16,-100.09 79.72,-105.5"/>
</a>
</g>
</g>
<!-- Node3 -->
<g id="Node000003" class="node">
<title>Node3</title>
<g id="a_Node000003"><a xlink:href="_vibrosonics_a_p_i_8cpp.html" target="_top" xlink:title=" ">
<polygon fill="white" stroke="#666666" points="201.88,-19.25 83.88,-19.25 83.88,0 201.88,0 201.88,-19.25"/>
<text text-anchor="middle" x="142.88" y="-5.75" font-family="Helvetica,sans-Serif" font-size="10.00">src/VibrosonicsAPI.cpp</text>
</a>
</g>
</g>
<!-- Node1&#45;&gt;Node3 -->
<g id="edge2_Node000001_Node000003" class="edge">
<title>Node1&#45;&gt;Node3</title>
<g id="a_edge2_Node000001_Node000003"><a xlink:title=" ">
<path fill="none" stroke="#63b8ff" d="M106.78,-99.52C110.21,-86.73 115.18,-69.78 120.88,-55.25 125.86,-42.54 133.07,-28.52 137.86,-19.65"/>
<polygon fill="#63b8ff" stroke="#63b8ff" points="103.49,-98.27 104.38,-108.82 110.27,-100.02 103.49,-98.27"/>
</a>
</g>
</g>
<!-- Node4 -->
<g id="Node000004" class="node">
<title>Node4</title>
<g id="a_Node000004"><a xlink:href="_vibrosonics_a_p_i_8h.html" target="_top" xlink:title=" ">
<polygon fill="white" stroke="#666666" points="237.62,-74.5 130.12,-74.5 130.12,-55.25 237.62,-55.25 237.62,-74.5"/>
<text text-anchor="middle" x="183.88" y="-61" font-family="Helvetica,sans-Serif" font-size="10.00">src/VibrosonicsAPI.h</text>
</a>
</g>
</g>
<!-- Node1&#45;&gt;Node4 -->
<g id="edge3_Node000001_Node000004" class="edge">
<title>Node1&#45;&gt;Node4</title>
<g id="a_edge3_Node000001_Node000004"><a xlink:title=" ">
<path fill="none" stroke="#63b8ff" d="M125.08,-104.05C139.53,-94.67 157.62,-82.92 169.9,-74.95"/>
<polygon fill="#63b8ff" stroke="#63b8ff" points="123.54,-100.89 117.05,-109.27 127.35,-106.76 123.54,-100.89"/>
</a>
</g>
</g>
<!-- Node4&#45;&gt;Node3 -->
<g id="edge4_Node000004_Node000003" class="edge">
<title>Node4&#45;&gt;Node3</title>
<g id="a_edge4_Node000004_Node000003"><a xlink:title=" ">
<path fill="none" stroke="#63b8ff" d="M170.29,-46.22C163.42,-37.31 155.38,-26.87 149.79,-19.61"/>
<polygon fill="#63b8ff" stroke="#63b8ff" points="167.31,-48.09 176.18,-53.88 172.85,-43.82 167.31,-48.09"/>
</a>
</g>
</g>
</g>
</svg>
