<?xml version="1.0" encoding="UTF-8" standalone="no"?>
<!DOCTYPE svg PUBLIC "-//W3C//DTD SVG 1.1//EN"
 "http://www.w3.org/Graphics/SVG/1.1/DTD/svg11.dtd">
<!-- Generated by graphviz version 12.2.0 (20241103.1931)
 -->
<!-- Title: src/Grain.cpp Pages: 1 -->
<svg width="127pt" height="138pt"
 viewBox="0.00 0.00 127.00 137.75" xmlns="http://www.w3.org/2000/svg" xmlns:xlink="http://www.w3.org/1999/xlink">
<g id="graph0" class="graph" transform="scale(1 1) rotate(0) translate(4 133.75)">
<title>src/Grain.cpp</title>
<!-- Node1 -->
<g id="Node000001" class="node">
<title>Node1</title>
<g id="a_Node000001"><a xlink:title=" ">
<polygon fill="#999999" stroke="#666666" points="101.25,-129.75 27.5,-129.75 27.5,-110.5 101.25,-110.5 101.25,-129.75"/>
<text text-anchor="middle" x="64.38" y="-116.25" font-family="Helvetica,sans-Serif" font-size="10.00">src/Grain.cpp</text>
</a>
</g>
</g>
<!-- Node2 -->
<g id="Node000002" class="node">
<title>Node2</title>
<g id="a_Node000002"><a xlink:href="_grain_8h.html" target="_top" xlink:title=" ">
<polygon fill="white" stroke="#666666" points="55.75,-74.5 9,-74.5 9,-55.25 55.75,-55.25 55.75,-74.5"/>
<text text-anchor="middle" x="32.38" y="-61" font-family="Helvetica,sans-Serif" font-size="10.00">Grain.h</text>
</a>
</g>
</g>
<!-- Node1&#45;&gt;Node2 -->
<g id="edge1_Node000001_Node000002" class="edge">
<title>Node1&#45;&gt;Node2</title>
<g id="a_edge1_Node000001_Node000002"><a xlink:title=" ">
<path fill="none" stroke="#63b8ff" d="M59.09,-110.33C54.9,-103.36 48.9,-93.37 43.64,-84.62"/>
<polygon fill="#63b8ff" stroke="#63b8ff" points="46.7,-82.93 38.55,-76.16 40.7,-86.53 46.7,-82.93"/>
</a>
</g>
</g>
<!-- Node4 -->
<g id="Node000004" class="node">
<title>Node4</title>
<g id="a_Node000004"><a xlink:title=" ">
<polygon fill="#e0e0e0" stroke="#999999" points="119,-74.5 73.75,-74.5 73.75,-55.25 119,-55.25 119,-74.5"/>
<text text-anchor="middle" x="96.38" y="-61" font-family="Helvetica,sans-Serif" font-size="10.00">math.h</text>
</a>
</g>
</g>
<!-- Node1&#45;&gt;Node4 -->
<g id="edge3_Node000001_Node000004" class="edge">
<title>Node1&#45;&gt;Node4</title>
<g id="a_edge3_Node000001_Node000004"><a xlink:title=" ">
<path fill="none" stroke="#63b8ff" d="M69.66,-110.33C73.85,-103.36 79.85,-93.37 85.11,-84.62"/>
<polygon fill="#63b8ff" stroke="#63b8ff" points="88.05,-86.53 90.2,-76.16 82.05,-82.93 88.05,-86.53"/>
</a>
</g>
</g>
<!-- Node3 -->
<g id="Node000003" class="node">
<title>Node3</title>
<g id="a_Node000003"><a xlink:title=" ">
<polygon fill="#e0e0e0" stroke="#999999" points="64.75,-19.25 0,-19.25 0,0 64.75,0 64.75,-19.25"/>
<text text-anchor="middle" x="32.38" y="-5.75" font-family="Helvetica,sans-Serif" font-size="10.00">AudioLab.h</text>
</a>
</g>
</g>
<!-- Node2&#45;&gt;Node3 -->
<g id="edge2_Node000002_Node000003" class="edge">
<title>Node2&#45;&gt;Node3</title>
<g id="a_edge2_Node000002_Node000003"><a xlink:title=" ">
<path fill="none" stroke="#63b8ff" d="M32.38,-55.08C32.38,-48.57 32.38,-39.42 32.38,-31.12"/>
<polygon fill="#63b8ff" stroke="#63b8ff" points="35.88,-31.12 32.38,-21.12 28.88,-31.12 35.88,-31.12"/>
</a>
</g>
</g>
</g>
</svg>
