<?xml version="1.0" encoding="UTF-8" standalone="no"?>
<!DOCTYPE svg PUBLIC "-//W3C//DTD SVG 1.1//EN"
 "http://www.w3.org/Graphics/SVG/1.1/DTD/svg11.dtd">
<!-- Generated by graphviz version 12.2.0 (20241103.1931)
 -->
<!-- Title: src/VibrosonicsAPI.cpp Pages: 1 -->
<svg width="668pt" height="193pt"
 viewBox="0.00 0.00 668.00 193.00" xmlns="http://www.w3.org/2000/svg" xmlns:xlink="http://www.w3.org/1999/xlink">
<g id="graph0" class="graph" transform="scale(1 1) rotate(0) translate(4 189)">
<title>src/VibrosonicsAPI.cpp</title>
<!-- Node1 -->
<g id="Node000001" class="node">
<title>Node1</title>
<g id="a_Node000001"><a xlink:title=" ">
<polygon fill="#999999" stroke="#666666" points="569.5,-185 451.5,-185 451.5,-165.75 569.5,-165.75 569.5,-185"/>
<text text-anchor="middle" x="510.5" y="-171.5" font-family="Helvetica,sans-Serif" font-size="10.00">src/VibrosonicsAPI.cpp</text>
</a>
</g>
</g>
<!-- Node2 -->
<g id="Node000002" class="node">
<title>Node2</title>
<g id="a_Node000002"><a xlink:href="_vibrosonics_a_p_i_8h.html" target="_top" xlink:title=" ">
<polygon fill="white" stroke="#666666" points="376,-129.75 285,-129.75 285,-110.5 376,-110.5 376,-129.75"/>
<text text-anchor="middle" x="330.5" y="-116.25" font-family="Helvetica,sans-Serif" font-size="10.00">VibrosonicsAPI.h</text>
</a>
</g>
</g>
<!-- Node1&#45;&gt;Node2 -->
<g id="edge1_Node000001_Node000002" class="edge">
<title>Node1&#45;&gt;Node2</title>
<g id="a_edge1_Node000001_Node000002"><a xlink:title=" ">
<path fill="none" stroke="#63b8ff" d="M479.97,-165.34C450.23,-156.54 404.81,-143.11 371.85,-133.36"/>
<polygon fill="#63b8ff" stroke="#63b8ff" points="373.22,-130.11 362.64,-130.63 371.23,-136.82 373.22,-130.11"/>
</a>
</g>
</g>
<!-- Node10 -->
<g id="Node000010" class="node">
<title>Node10</title>
<g id="a_Node000010"><a xlink:href="_grain_8h.html" target="_top" xlink:title=" ">
<polygon fill="white" stroke="#666666" points="588.88,-74.5 542.12,-74.5 542.12,-55.25 588.88,-55.25 588.88,-74.5"/>
<text text-anchor="middle" x="565.5" y="-61" font-family="Helvetica,sans-Serif" font-size="10.00">Grain.h</text>
</a>
</g>
</g>
<!-- Node1&#45;&gt;Node10 -->
<g id="edge13_Node000001_Node000010" class="edge">
<title>Node1&#45;&gt;Node10</title>
<g id="a_edge13_Node000001_Node000010"><a xlink:title=" ">
<path fill="none" stroke="#63b8ff" d="M506.59,-165.55C501.52,-152.69 494.34,-128.37 503.5,-110.5 510.11,-97.59 522.39,-87.57 534.29,-80.32"/>
<polygon fill="#63b8ff" stroke="#63b8ff" points="535.7,-83.54 542.74,-75.62 532.3,-77.42 535.7,-83.54"/>
</a>
</g>
</g>
<!-- Node12 -->
<g id="Node000012" class="node">
<title>Node12</title>
<g id="a_Node000012"><a xlink:title=" ">
<polygon fill="#e0e0e0" stroke="#999999" points="562.75,-129.75 512.25,-129.75 512.25,-110.5 562.75,-110.5 562.75,-129.75"/>
<text text-anchor="middle" x="537.5" y="-116.25" font-family="Helvetica,sans-Serif" font-size="10.00">Config.h</text>
</a>
</g>
</g>
<!-- Node1&#45;&gt;Node12 -->
<g id="edge12_Node000001_Node000012" class="edge">
<title>Node1&#45;&gt;Node12</title>
<g id="a_edge12_Node000001_Node000012"><a xlink:title=" ">
<path fill="none" stroke="#63b8ff" d="M514.96,-165.58C518.45,-158.69 523.45,-148.84 527.85,-140.16"/>
<polygon fill="#63b8ff" stroke="#63b8ff" points="530.86,-141.96 532.26,-131.46 524.62,-138.8 530.86,-141.96"/>
</a>
</g>
</g>
<!-- Node13 -->
<g id="Node000013" class="node">
<title>Node13</title>
<g id="a_Node000013"><a xlink:title=" ">
<polygon fill="#e0e0e0" stroke="#999999" points="660,-129.75 581,-129.75 581,-110.5 660,-110.5 660,-129.75"/>
<text text-anchor="middle" x="620.5" y="-116.25" font-family="Helvetica,sans-Serif" font-size="10.00">Spectrogram.h</text>
</a>
</g>
</g>
<!-- Node1&#45;&gt;Node13 -->
<g id="edge14_Node000001_Node000013" class="edge">
<title>Node1&#45;&gt;Node13</title>
<g id="a_edge14_Node000001_Node000013"><a xlink:title=" ">
<path fill="none" stroke="#63b8ff" d="M529.16,-165.34C546.23,-157.08 571.74,-144.73 591.47,-135.18"/>
<polygon fill="#63b8ff" stroke="#63b8ff" points="592.91,-138.37 600.39,-130.86 589.86,-132.07 592.91,-138.37"/>
</a>
</g>
</g>
<!-- Node3 -->
<g id="Node000003" class="node">
<title>Node3</title>
<g id="a_Node000003"><a xlink:title=" ">
<polygon fill="#e0e0e0" stroke="#999999" points="43,-74.5 0,-74.5 0,-55.25 43,-55.25 43,-74.5"/>
<text text-anchor="middle" x="21.5" y="-61" font-family="Helvetica,sans-Serif" font-size="10.00">cmath</text>
</a>
</g>
</g>
<!-- Node2&#45;&gt;Node3 -->
<g id="edge2_Node000002_Node000003" class="edge">
<title>Node2&#45;&gt;Node3</title>
<g id="a_edge2_Node000002_Node000003"><a xlink:title=" ">
<path fill="none" stroke="#63b8ff" d="M284.94,-113.41C231.9,-106.4 141.48,-93.38 54.57,-74.73"/>
<polygon fill="#63b8ff" stroke="#63b8ff" points="55.43,-71.34 44.92,-72.63 53.94,-78.18 55.43,-71.34"/>
</a>
</g>
</g>
<!-- Node4 -->
<g id="Node000004" class="node">
<title>Node4</title>
<g id="a_Node000004"><a xlink:title=" ">
<polygon fill="#e0e0e0" stroke="#999999" points="117.75,-74.5 61.25,-74.5 61.25,-55.25 117.75,-55.25 117.75,-74.5"/>
<text text-anchor="middle" x="89.5" y="-61" font-family="Helvetica,sans-Serif" font-size="10.00">Arduino.h</text>
</a>
</g>
</g>
<!-- Node2&#45;&gt;Node4 -->
<g id="edge3_Node000002_Node000004" class="edge">
<title>Node2&#45;&gt;Node4</title>
<g id="a_edge3_Node000002_Node000004"><a xlink:title=" ">
<path fill="none" stroke="#63b8ff" d="M289.34,-110.03C244.55,-100.13 173.41,-84.42 129.2,-74.65"/>
<polygon fill="#63b8ff" stroke="#63b8ff" points="130.02,-71.24 119.5,-72.5 128.51,-78.08 130.02,-71.24"/>
</a>
</g>
</g>
<!-- Node5 -->
<g id="Node000005" class="node">
<title>Node5</title>
<g id="a_Node000005"><a xlink:title=" ">
<polygon fill="#e0e0e0" stroke="#999999" points="387.88,-19.25 323.12,-19.25 323.12,0 387.88,0 387.88,-19.25"/>
<text text-anchor="middle" x="355.5" y="-5.75" font-family="Helvetica,sans-Serif" font-size="10.00">AudioLab.h</text>
</a>
</g>
</g>
<!-- Node2&#45;&gt;Node5 -->
<g id="edge4_Node000002_Node000005" class="edge">
<title>Node2&#45;&gt;Node5</title>
<g id="a_edge4_Node000002_Node000005"><a xlink:title=" ">
<path fill="none" stroke="#63b8ff" d="M284.65,-116.98C224.46,-112.45 130.24,-98.43 164.5,-55.25 182.51,-32.54 261.03,-20.3 311.62,-14.65"/>
<polygon fill="#63b8ff" stroke="#63b8ff" points="311.81,-18.15 321.39,-13.61 311.07,-11.19 311.81,-18.15"/>
</a>
</g>
</g>
<!-- Node6 -->
<g id="Node000006" class="node">
<title>Node6</title>
<g id="a_Node000006"><a xlink:title=" ">
<polygon fill="#e0e0e0" stroke="#999999" points="247.38,-74.5 173.62,-74.5 173.62,-55.25 247.38,-55.25 247.38,-74.5"/>
<text text-anchor="middle" x="210.5" y="-61" font-family="Helvetica,sans-Serif" font-size="10.00">AudioPrism.h</text>
</a>
</g>
</g>
<!-- Node2&#45;&gt;Node6 -->
<g id="edge5_Node000002_Node000006" class="edge">
<title>Node2&#45;&gt;Node6</title>
<g id="a_edge5_Node000002_Node000006"><a xlink:title=" ">
<path fill="none" stroke="#63b8ff" d="M310.14,-110.09C291.27,-101.72 262.91,-89.13 241.27,-79.53"/>
<polygon fill="#63b8ff" stroke="#63b8ff" points="242.9,-76.42 232.34,-75.57 240.06,-82.82 242.9,-76.42"/>
</a>
</g>
</g>
<!-- Node7 -->
<g id="Node000007" class="node">
<title>Node7</title>
<g id="a_Node000007"><a xlink:title=" ">
<polygon fill="#e0e0e0" stroke="#999999" points="323.88,-74.5 265.12,-74.5 265.12,-55.25 323.88,-55.25 323.88,-74.5"/>
<text text-anchor="middle" x="294.5" y="-61" font-family="Helvetica,sans-Serif" font-size="10.00">Fast4ier.h</text>
</a>
</g>
</g>
<!-- Node2&#45;&gt;Node7 -->
<g id="edge6_Node000002_Node000007" class="edge">
<title>Node2&#45;&gt;Node7</title>
<g id="a_edge6_Node000002_Node000007"><a xlink:title=" ">
<path fill="none" stroke="#63b8ff" d="M324.56,-110.33C319.79,-103.28 312.94,-93.15 306.98,-84.33"/>
<polygon fill="#63b8ff" stroke="#63b8ff" points="309.92,-82.44 301.42,-76.11 304.12,-86.36 309.92,-82.44"/>
</a>
</g>
</g>
<!-- Node8 -->
<g id="Node000008" class="node">
<title>Node8</title>
<g id="a_Node000008"><a xlink:title=" ">
<polygon fill="#e0e0e0" stroke="#999999" points="393.5,-74.5 341.5,-74.5 341.5,-55.25 393.5,-55.25 393.5,-74.5"/>
<text text-anchor="middle" x="367.5" y="-61" font-family="Helvetica,sans-Serif" font-size="10.00">complex</text>
</a>
</g>
</g>
<!-- Node2&#45;&gt;Node8 -->
<g id="edge7_Node000002_Node000008" class="edge">
<title>Node2&#45;&gt;Node8</title>
<g id="a_edge7_Node000002_Node000008"><a xlink:title=" ">
<path fill="none" stroke="#63b8ff" d="M336.61,-110.33C341.56,-103.21 348.7,-92.93 354.87,-84.05"/>
<polygon fill="#63b8ff" stroke="#63b8ff" points="357.56,-86.31 360.39,-76.1 351.81,-82.32 357.56,-86.31"/>
</a>
</g>
</g>
<!-- Node9 -->
<g id="Node000009" class="node">
<title>Node9</title>
<g id="a_Node000009"><a xlink:title=" ">
<polygon fill="#e0e0e0" stroke="#999999" points="457.12,-74.5 411.88,-74.5 411.88,-55.25 457.12,-55.25 457.12,-74.5"/>
<text text-anchor="middle" x="434.5" y="-61" font-family="Helvetica,sans-Serif" font-size="10.00">cstdint</text>
</a>
</g>
</g>
<!-- Node2&#45;&gt;Node9 -->
<g id="edge8_Node000002_Node000009" class="edge">
<title>Node2&#45;&gt;Node9</title>
<g id="a_edge8_Node000002_Node000009"><a xlink:title=" ">
<path fill="none" stroke="#63b8ff" d="M348.14,-110.09C364.13,-101.91 387.96,-89.71 406.54,-80.19"/>
<polygon fill="#63b8ff" stroke="#63b8ff" points="408.12,-83.32 415.42,-75.64 404.93,-77.08 408.12,-83.32"/>
</a>
</g>
</g>
<!-- Node2&#45;&gt;Node10 -->
<g id="edge9_Node000002_Node000010" class="edge">
<title>Node2&#45;&gt;Node10</title>
<g id="a_edge9_Node000002_Node000010"><a xlink:title=" ">
<path fill="none" stroke="#63b8ff" d="M373.95,-110.03C412.54,-101.84 470.71,-89.22 530.55,-74.9"/>
<polygon fill="#63b8ff" stroke="#63b8ff" points="531.36,-78.3 540.26,-72.56 529.72,-71.49 531.36,-78.3"/>
</a>
</g>
</g>
<!-- Node11 -->
<g id="Node000011" class="node">
<title>Node11</title>
<g id="a_Node000011"><a xlink:title=" ">
<polygon fill="#e0e0e0" stroke="#999999" points="523.62,-74.5 475.38,-74.5 475.38,-55.25 523.62,-55.25 523.62,-74.5"/>
<text text-anchor="middle" x="499.5" y="-61" font-family="Helvetica,sans-Serif" font-size="10.00">Wave.h</text>
</a>
</g>
</g>
<!-- Node2&#45;&gt;Node11 -->
<g id="edge11_Node000002_Node000011" class="edge">
<title>Node2&#45;&gt;Node11</title>
<g id="a_edge11_Node000002_Node000011"><a xlink:title=" ">
<path fill="none" stroke="#63b8ff" d="M359.17,-110.09C388.19,-100.95 433.11,-86.79 464.28,-76.97"/>
<polygon fill="#63b8ff" stroke="#63b8ff" points="465.16,-80.37 473.64,-74.02 463.05,-73.69 465.16,-80.37"/>
</a>
</g>
</g>
<!-- Node10&#45;&gt;Node5 -->
<g id="edge10_Node000010_Node000005" class="edge">
<title>Node10&#45;&gt;Node5</title>
<g id="a_edge10_Node000010_Node000005"><a xlink:title=" ">
<path fill="none" stroke="#63b8ff" d="M541.71,-57.63C538.61,-56.83 535.48,-56.02 532.5,-55.25 487.08,-43.59 435.02,-30.5 399.18,-21.53"/>
<polygon fill="#63b8ff" stroke="#63b8ff" points="400.16,-18.16 389.61,-19.13 398.46,-24.95 400.16,-18.16"/>
</a>
</g>
</g>
</g>
</svg>
