<?xml version="1.0" encoding="UTF-8" standalone="no"?>
<!DOCTYPE svg PUBLIC "-//W3C//DTD SVG 1.1//EN"
 "http://www.w3.org/Graphics/SVG/1.1/DTD/svg11.dtd">
<!-- Generated by graphviz version 12.2.0 (20241103.1931)
 -->
<!-- Title: src/VibrosonicsAPI.h Pages: 1 -->
<svg width="597pt" height="138pt"
 viewBox="0.00 0.00 596.62 137.75" xmlns="http://www.w3.org/2000/svg" xmlns:xlink="http://www.w3.org/1999/xlink">
<g id="graph0" class="graph" transform="scale(1 1) rotate(0) translate(4 133.75)">
<title>src/VibrosonicsAPI.h</title>
<!-- Node1 -->
<g id="Node000001" class="node">
<title>Node1</title>
<g id="a_Node000001"><a xlink:title=" ">
<polygon fill="#999999" stroke="#666666" points="348.25,-129.75 240.75,-129.75 240.75,-110.5 348.25,-110.5 348.25,-129.75"/>
<text text-anchor="middle" x="294.5" y="-116.25" font-family="Helvetica,sans-Serif" font-size="10.00">src/VibrosonicsAPI.h</text>
</a>
</g>
</g>
<!-- Node2 -->
<g id="Node000002" class="node">
<title>Node2</title>
<g id="a_Node000002"><a xlink:title=" ">
<polygon fill="#e0e0e0" stroke="#999999" points="43,-74.5 0,-74.5 0,-55.25 43,-55.25 43,-74.5"/>
<text text-anchor="middle" x="21.5" y="-61" font-family="Helvetica,sans-Serif" font-size="10.00">cmath</text>
</a>
</g>
</g>
<!-- Node1&#45;&gt;Node2 -->
<g id="edge1_Node000001_Node000002" class="edge">
<title>Node1&#45;&gt;Node2</title>
<g id="a_edge1_Node000001_Node000002"><a xlink:title=" ">
<path fill="none" stroke="#63b8ff" d="M240.39,-110.56C193.66,-102.85 124.11,-90.62 54.61,-74.81"/>
<polygon fill="#63b8ff" stroke="#63b8ff" points="55.46,-71.42 44.93,-72.58 53.89,-78.24 55.46,-71.42"/>
</a>
</g>
</g>
<!-- Node3 -->
<g id="Node000003" class="node">
<title>Node3</title>
<g id="a_Node000003"><a xlink:title=" ">
<polygon fill="#e0e0e0" stroke="#999999" points="117.75,-74.5 61.25,-74.5 61.25,-55.25 117.75,-55.25 117.75,-74.5"/>
<text text-anchor="middle" x="89.5" y="-61" font-family="Helvetica,sans-Serif" font-size="10.00">Arduino.h</text>
</a>
</g>
</g>
<!-- Node1&#45;&gt;Node3 -->
<g id="edge2_Node000001_Node000003" class="edge">
<title>Node1&#45;&gt;Node3</title>
<g id="a_edge2_Node000001_Node000003"><a xlink:title=" ">
<path fill="none" stroke="#63b8ff" d="M259.72,-110.09C223.59,-100.71 167.14,-86.04 129.27,-76.2"/>
<polygon fill="#63b8ff" stroke="#63b8ff" points="130.17,-72.82 119.62,-73.7 128.41,-79.6 130.17,-72.82"/>
</a>
</g>
</g>
<!-- Node4 -->
<g id="Node000004" class="node">
<title>Node4</title>
<g id="a_Node000004"><a xlink:title=" ">
<polygon fill="#e0e0e0" stroke="#999999" points="353.88,-19.25 289.12,-19.25 289.12,0 353.88,0 353.88,-19.25"/>
<text text-anchor="middle" x="321.5" y="-5.75" font-family="Helvetica,sans-Serif" font-size="10.00">AudioLab.h</text>
</a>
</g>
</g>
<!-- Node1&#45;&gt;Node4 -->
<g id="edge3_Node000001_Node000004" class="edge">
<title>Node1&#45;&gt;Node4</title>
<g id="a_edge3_Node000001_Node000004"><a xlink:title=" ">
<path fill="none" stroke="#63b8ff" d="M240.54,-111.99C194.99,-103.64 140.7,-86.75 164.5,-55.25 178.16,-37.17 236.05,-24.26 277.56,-17.12"/>
<polygon fill="#63b8ff" stroke="#63b8ff" points="278,-20.59 287.29,-15.51 276.85,-13.69 278,-20.59"/>
</a>
</g>
</g>
<!-- Node5 -->
<g id="Node000005" class="node">
<title>Node5</title>
<g id="a_Node000005"><a xlink:title=" ">
<polygon fill="#e0e0e0" stroke="#999999" points="247.38,-74.5 173.62,-74.5 173.62,-55.25 247.38,-55.25 247.38,-74.5"/>
<text text-anchor="middle" x="210.5" y="-61" font-family="Helvetica,sans-Serif" font-size="10.00">AudioPrism.h</text>
</a>
</g>
</g>
<!-- Node1&#45;&gt;Node5 -->
<g id="edge4_Node000001_Node000005" class="edge">
<title>Node1&#45;&gt;Node5</title>
<g id="a_edge4_Node000001_Node000005"><a xlink:title=" ">
<path fill="none" stroke="#63b8ff" d="M280.25,-110.09C267.7,-102.14 249.17,-90.39 234.36,-81"/>
<polygon fill="#63b8ff" stroke="#63b8ff" points="236.42,-78.16 226.1,-75.76 232.67,-84.07 236.42,-78.16"/>
</a>
</g>
</g>
<!-- Node6 -->
<g id="Node000006" class="node">
<title>Node6</title>
<g id="a_Node000006"><a xlink:title=" ">
<polygon fill="#e0e0e0" stroke="#999999" points="323.88,-74.5 265.12,-74.5 265.12,-55.25 323.88,-55.25 323.88,-74.5"/>
<text text-anchor="middle" x="294.5" y="-61" font-family="Helvetica,sans-Serif" font-size="10.00">Fast4ier.h</text>
</a>
</g>
</g>
<!-- Node1&#45;&gt;Node6 -->
<g id="edge5_Node000001_Node000006" class="edge">
<title>Node1&#45;&gt;Node6</title>
<g id="a_edge5_Node000001_Node000006"><a xlink:title=" ">
<path fill="none" stroke="#63b8ff" d="M294.5,-110.33C294.5,-103.82 294.5,-94.67 294.5,-86.37"/>
<polygon fill="#63b8ff" stroke="#63b8ff" points="298,-86.37 294.5,-76.37 291,-86.37 298,-86.37"/>
</a>
</g>
</g>
<!-- Node7 -->
<g id="Node000007" class="node">
<title>Node7</title>
<g id="a_Node000007"><a xlink:title=" ">
<polygon fill="#e0e0e0" stroke="#999999" points="393.5,-74.5 341.5,-74.5 341.5,-55.25 393.5,-55.25 393.5,-74.5"/>
<text text-anchor="middle" x="367.5" y="-61" font-family="Helvetica,sans-Serif" font-size="10.00">complex</text>
</a>
</g>
</g>
<!-- Node1&#45;&gt;Node7 -->
<g id="edge6_Node000001_Node000007" class="edge">
<title>Node1&#45;&gt;Node7</title>
<g id="a_edge6_Node000001_Node000007"><a xlink:title=" ">
<path fill="none" stroke="#63b8ff" d="M306.88,-110.09C317.65,-102.24 333.47,-90.7 346.25,-81.37"/>
<polygon fill="#63b8ff" stroke="#63b8ff" points="348.06,-84.39 354.08,-75.67 343.94,-78.73 348.06,-84.39"/>
</a>
</g>
</g>
<!-- Node8 -->
<g id="Node000008" class="node">
<title>Node8</title>
<g id="a_Node000008"><a xlink:title=" ">
<polygon fill="#e0e0e0" stroke="#999999" points="457.12,-74.5 411.88,-74.5 411.88,-55.25 457.12,-55.25 457.12,-74.5"/>
<text text-anchor="middle" x="434.5" y="-61" font-family="Helvetica,sans-Serif" font-size="10.00">cstdint</text>
</a>
</g>
</g>
<!-- Node1&#45;&gt;Node8 -->
<g id="edge7_Node000001_Node000008" class="edge">
<title>Node1&#45;&gt;Node8</title>
<g id="a_edge7_Node000001_Node000008"><a xlink:title=" ">
<path fill="none" stroke="#63b8ff" d="M318.25,-110.09C340.95,-101.46 375.39,-88.36 400.9,-78.66"/>
<polygon fill="#63b8ff" stroke="#63b8ff" points="402.05,-81.96 410.15,-75.14 399.56,-75.42 402.05,-81.96"/>
</a>
</g>
</g>
<!-- Node9 -->
<g id="Node000009" class="node">
<title>Node9</title>
<g id="a_Node000009"><a xlink:href="_grain_8h.html" target="_top" xlink:title=" ">
<polygon fill="white" stroke="#666666" points="521.88,-74.5 475.12,-74.5 475.12,-55.25 521.88,-55.25 521.88,-74.5"/>
<text text-anchor="middle" x="498.5" y="-61" font-family="Helvetica,sans-Serif" font-size="10.00">Grain.h</text>
</a>
</g>
</g>
<!-- Node1&#45;&gt;Node9 -->
<g id="edge8_Node000001_Node000009" class="edge">
<title>Node1&#45;&gt;Node9</title>
<g id="a_edge8_Node000001_Node000009"><a xlink:title=" ">
<path fill="none" stroke="#63b8ff" d="M329.77,-110.08C362.25,-101.72 412.06,-88.86 463.7,-75.22"/>
<polygon fill="#63b8ff" stroke="#63b8ff" points="464.5,-78.63 473.28,-72.69 462.72,-71.86 464.5,-78.63"/>
</a>
</g>
</g>
<!-- Node10 -->
<g id="Node000010" class="node">
<title>Node10</title>
<g id="a_Node000010"><a xlink:title=" ">
<polygon fill="#e0e0e0" stroke="#999999" points="588.62,-74.5 540.38,-74.5 540.38,-55.25 588.62,-55.25 588.62,-74.5"/>
<text text-anchor="middle" x="564.5" y="-61" font-family="Helvetica,sans-Serif" font-size="10.00">Wave.h</text>
</a>
</g>
</g>
<!-- Node1&#45;&gt;Node10 -->
<g id="edge10_Node000001_Node000010" class="edge">
<title>Node1&#45;&gt;Node10</title>
<g id="a_edge10_Node000001_Node000010"><a xlink:title=" ">
<path fill="none" stroke="#63b8ff" d="M347.65,-110.04C393.17,-102.04 460.71,-89.66 529.06,-74.7"/>
<polygon fill="#63b8ff" stroke="#63b8ff" points="529.54,-78.17 538.55,-72.6 528.03,-71.34 529.54,-78.17"/>
</a>
</g>
</g>
<!-- Node9&#45;&gt;Node4 -->
<g id="edge9_Node000009_Node000004" class="edge">
<title>Node9&#45;&gt;Node4</title>
<g id="a_edge9_Node000009_Node000004"><a xlink:title=" ">
<path fill="none" stroke="#63b8ff" d="M474.63,-56.69C445.93,-48.06 397.31,-33.43 362.55,-22.97"/>
<polygon fill="#63b8ff" stroke="#63b8ff" points="363.83,-19.7 353.24,-20.17 361.81,-26.41 363.83,-19.7"/>
</a>
</g>
</g>
</g>
</svg>
