<?xml version="1.0" encoding="UTF-8" standalone="no"?>
<!DOCTYPE svg PUBLIC "-//W3C//DTD SVG 1.1//EN"
 "http://www.w3.org/Graphics/SVG/1.1/DTD/svg11.dtd">
<!-- Generated by graphviz version 12.2.0 (20241103.1931)
 -->
<!-- Title: src/VibrosonicsAPI.cpp Pages: 1 -->
<svg width="597pt" height="193pt"
 viewBox="0.00 0.00 596.88 193.00" xmlns="http://www.w3.org/2000/svg" xmlns:xlink="http://www.w3.org/1999/xlink">
<g id="graph0" class="graph" transform="scale(1 1) rotate(0) translate(4 189)">
<title>src/VibrosonicsAPI.cpp</title>
<!-- Node1 -->
<g id="Node000001" class="node">
<title>Node1</title>
<g id="a_Node000001"><a xlink:title=" ">
<polygon fill="#999999" stroke="#666666" points="427.5,-185 309.5,-185 309.5,-165.75 427.5,-165.75 427.5,-185"/>
<text text-anchor="middle" x="368.5" y="-171.5" font-family="Helvetica,sans-Serif" font-size="10.00">src/VibrosonicsAPI.cpp</text>
</a>
</g>
</g>
<!-- Node2 -->
<g id="Node000002" class="node">
<title>Node2</title>
<g id="a_Node000002"><a xlink:href="_vibrosonics_a_p_i_8h.html" target="_top" xlink:title=" ">
<polygon fill="white" stroke="#666666" points="340,-129.75 249,-129.75 249,-110.5 340,-110.5 340,-129.75"/>
<text text-anchor="middle" x="294.5" y="-116.25" font-family="Helvetica,sans-Serif" font-size="10.00">VibrosonicsAPI.h</text>
</a>
</g>
</g>
<!-- Node1&#45;&gt;Node2 -->
<g id="edge1_Node000001_Node000002" class="edge">
<title>Node1&#45;&gt;Node2</title>
<g id="a_edge1_Node000001_Node000002"><a xlink:title=" ">
<path fill="none" stroke="#63b8ff" d="M355.95,-165.34C345.04,-157.49 329,-145.95 316.04,-136.62"/>
<polygon fill="#63b8ff" stroke="#63b8ff" points="318.26,-133.91 308.1,-130.91 314.17,-139.59 318.26,-133.91"/>
</a>
</g>
</g>
<!-- Node3 -->
<g id="Node000003" class="node">
<title>Node3</title>
<g id="a_Node000003"><a xlink:title=" ">
<polygon fill="#e0e0e0" stroke="#999999" points="43,-74.5 0,-74.5 0,-55.25 43,-55.25 43,-74.5"/>
<text text-anchor="middle" x="21.5" y="-61" font-family="Helvetica,sans-Serif" font-size="10.00">cmath</text>
</a>
</g>
</g>
<!-- Node1&#45;&gt;Node3 -->
<g id="edge15_Node000001_Node000003" class="edge">
<title>Node1&#45;&gt;Node3</title>
<g id="a_edge15_Node000001_Node000003"><a xlink:title=" ">
<path fill="none" stroke="#63b8ff" d="M339.51,-165.31C275.3,-145.23 121.46,-97.13 54.06,-76.06"/>
<polygon fill="#63b8ff" stroke="#63b8ff" points="55.3,-72.78 44.71,-73.13 53.21,-79.46 55.3,-72.78"/>
</a>
</g>
</g>
<!-- Node10 -->
<g id="Node000010" class="node">
<title>Node10</title>
<g id="a_Node000010"><a xlink:href="_grain_8h.html" target="_top" xlink:title=" ">
<polygon fill="white" stroke="#666666" points="588.88,-74.5 542.12,-74.5 542.12,-55.25 588.88,-55.25 588.88,-74.5"/>
<text text-anchor="middle" x="565.5" y="-61" font-family="Helvetica,sans-Serif" font-size="10.00">Grain.h</text>
</a>
</g>
</g>
<!-- Node1&#45;&gt;Node10 -->
<g id="edge13_Node000001_Node000010" class="edge">
<title>Node1&#45;&gt;Node10</title>
<g id="a_edge13_Node000001_Node000010"><a xlink:title=" ">
<path fill="none" stroke="#63b8ff" d="M368.51,-165.55C369.03,-151.77 372.11,-125.2 387.5,-110.5 433.08,-66.96 464.8,-88.41 530.82,-74.65"/>
<polygon fill="#63b8ff" stroke="#63b8ff" points="531.29,-78.14 540.24,-72.47 529.71,-71.32 531.29,-78.14"/>
</a>
</g>
</g>
<!-- Node12 -->
<g id="Node000012" class="node">
<title>Node12</title>
<g id="a_Node000012"><a xlink:title=" ">
<polygon fill="#e0e0e0" stroke="#999999" points="446.75,-129.75 396.25,-129.75 396.25,-110.5 446.75,-110.5 446.75,-129.75"/>
<text text-anchor="middle" x="421.5" y="-116.25" font-family="Helvetica,sans-Serif" font-size="10.00">Config.h</text>
</a>
</g>
</g>
<!-- Node1&#45;&gt;Node12 -->
<g id="edge12_Node000001_Node000012" class="edge">
<title>Node1&#45;&gt;Node12</title>
<g id="a_edge12_Node000001_Node000012"><a xlink:title=" ">
<path fill="none" stroke="#63b8ff" d="M377.25,-165.58C384.65,-158.15 395.46,-147.29 404.55,-138.16"/>
<polygon fill="#63b8ff" stroke="#63b8ff" points="406.92,-140.74 411.49,-131.18 401.96,-135.8 406.92,-140.74"/>
</a>
</g>
</g>
<!-- Node13 -->
<g id="Node000013" class="node">
<title>Node13</title>
<g id="a_Node000013"><a xlink:title=" ">
<polygon fill="#e0e0e0" stroke="#999999" points="544,-129.75 465,-129.75 465,-110.5 544,-110.5 544,-129.75"/>
<text text-anchor="middle" x="504.5" y="-116.25" font-family="Helvetica,sans-Serif" font-size="10.00">Spectrogram.h</text>
</a>
</g>
</g>
<!-- Node1&#45;&gt;Node13 -->
<g id="edge14_Node000001_Node000013" class="edge">
<title>Node1&#45;&gt;Node13</title>
<g id="a_edge14_Node000001_Node000013"><a xlink:title=" ">
<path fill="none" stroke="#63b8ff" d="M391.57,-165.34C413.26,-156.85 445.98,-144.04 470.63,-134.39"/>
<polygon fill="#63b8ff" stroke="#63b8ff" points="471.87,-137.66 479.91,-130.75 469.32,-131.14 471.87,-137.66"/>
</a>
</g>
</g>
<!-- Node2&#45;&gt;Node3 -->
<g id="edge2_Node000002_Node000003" class="edge">
<title>Node2&#45;&gt;Node3</title>
<g id="a_edge2_Node000002_Node000003"><a xlink:title=" ">
<path fill="none" stroke="#63b8ff" d="M248.76,-111.94C202.2,-104.34 127.74,-91.44 54.28,-74.74"/>
<polygon fill="#63b8ff" stroke="#63b8ff" points="55.46,-71.42 44.93,-72.58 53.89,-78.24 55.46,-71.42"/>
</a>
</g>
</g>
<!-- Node4 -->
<g id="Node000004" class="node">
<title>Node4</title>
<g id="a_Node000004"><a xlink:title=" ">
<polygon fill="#e0e0e0" stroke="#999999" points="117.75,-74.5 61.25,-74.5 61.25,-55.25 117.75,-55.25 117.75,-74.5"/>
<text text-anchor="middle" x="89.5" y="-61" font-family="Helvetica,sans-Serif" font-size="10.00">Arduino.h</text>
</a>
</g>
</g>
<!-- Node2&#45;&gt;Node4 -->
<g id="edge3_Node000002_Node000004" class="edge">
<title>Node2&#45;&gt;Node4</title>
<g id="a_edge3_Node000002_Node000004"><a xlink:title=" ">
<path fill="none" stroke="#63b8ff" d="M259.72,-110.09C223.59,-100.71 167.14,-86.04 129.27,-76.2"/>
<polygon fill="#63b8ff" stroke="#63b8ff" points="130.17,-72.82 119.62,-73.7 128.41,-79.6 130.17,-72.82"/>
</a>
</g>
</g>
<!-- Node5 -->
<g id="Node000005" class="node">
<title>Node5</title>
<g id="a_Node000005"><a xlink:title=" ">
<polygon fill="#e0e0e0" stroke="#999999" points="387.88,-19.25 323.12,-19.25 323.12,0 387.88,0 387.88,-19.25"/>
<text text-anchor="middle" x="355.5" y="-5.75" font-family="Helvetica,sans-Serif" font-size="10.00">AudioLab.h</text>
</a>
</g>
</g>
<!-- Node2&#45;&gt;Node5 -->
<g id="edge4_Node000002_Node000005" class="edge">
<title>Node2&#45;&gt;Node5</title>
<g id="a_edge4_Node000002_Node000005"><a xlink:title=" ">
<path fill="none" stroke="#63b8ff" d="M248.82,-113.26C201.67,-105.31 138.4,-88.15 164.5,-55.25 182.51,-32.54 261.03,-20.3 311.62,-14.65"/>
<polygon fill="#63b8ff" stroke="#63b8ff" points="311.81,-18.15 321.39,-13.61 311.07,-11.19 311.81,-18.15"/>
</a>
</g>
</g>
<!-- Node6 -->
<g id="Node000006" class="node">
<title>Node6</title>
<g id="a_Node000006"><a xlink:title=" ">
<polygon fill="#e0e0e0" stroke="#999999" points="247.38,-74.5 173.62,-74.5 173.62,-55.25 247.38,-55.25 247.38,-74.5"/>
<text text-anchor="middle" x="210.5" y="-61" font-family="Helvetica,sans-Serif" font-size="10.00">AudioPrism.h</text>
</a>
</g>
</g>
<!-- Node2&#45;&gt;Node6 -->
<g id="edge5_Node000002_Node000006" class="edge">
<title>Node2&#45;&gt;Node6</title>
<g id="a_edge5_Node000002_Node000006"><a xlink:title=" ">
<path fill="none" stroke="#63b8ff" d="M280.25,-110.09C267.7,-102.14 249.17,-90.39 234.36,-81"/>
<polygon fill="#63b8ff" stroke="#63b8ff" points="236.42,-78.16 226.1,-75.76 232.67,-84.07 236.42,-78.16"/>
</a>
</g>
</g>
<!-- Node7 -->
<g id="Node000007" class="node">
<title>Node7</title>
<g id="a_Node000007"><a xlink:title=" ">
<polygon fill="#e0e0e0" stroke="#999999" points="323.88,-74.5 265.12,-74.5 265.12,-55.25 323.88,-55.25 323.88,-74.5"/>
<text text-anchor="middle" x="294.5" y="-61" font-family="Helvetica,sans-Serif" font-size="10.00">Fast4ier.h</text>
</a>
</g>
</g>
<!-- Node2&#45;&gt;Node7 -->
<g id="edge6_Node000002_Node000007" class="edge">
<title>Node2&#45;&gt;Node7</title>
<g id="a_edge6_Node000002_Node000007"><a xlink:title=" ">
<path fill="none" stroke="#63b8ff" d="M294.5,-110.33C294.5,-103.82 294.5,-94.67 294.5,-86.37"/>
<polygon fill="#63b8ff" stroke="#63b8ff" points="298,-86.37 294.5,-76.37 291,-86.37 298,-86.37"/>
</a>
</g>
</g>
<!-- Node8 -->
<g id="Node000008" class="node">
<title>Node8</title>
<g id="a_Node000008"><a xlink:title=" ">
<polygon fill="#e0e0e0" stroke="#999999" points="393.5,-74.5 341.5,-74.5 341.5,-55.25 393.5,-55.25 393.5,-74.5"/>
<text text-anchor="middle" x="367.5" y="-61" font-family="Helvetica,sans-Serif" font-size="10.00">complex</text>
</a>
</g>
</g>
<!-- Node2&#45;&gt;Node8 -->
<g id="edge7_Node000002_Node000008" class="edge">
<title>Node2&#45;&gt;Node8</title>
<g id="a_edge7_Node000002_Node000008"><a xlink:title=" ">
<path fill="none" stroke="#63b8ff" d="M306.88,-110.09C317.65,-102.24 333.47,-90.7 346.25,-81.37"/>
<polygon fill="#63b8ff" stroke="#63b8ff" points="348.06,-84.39 354.08,-75.67 343.94,-78.73 348.06,-84.39"/>
</a>
</g>
</g>
<!-- Node9 -->
<g id="Node000009" class="node">
<title>Node9</title>
<g id="a_Node000009"><a xlink:title=" ">
<polygon fill="#e0e0e0" stroke="#999999" points="457.12,-74.5 411.88,-74.5 411.88,-55.25 457.12,-55.25 457.12,-74.5"/>
<text text-anchor="middle" x="434.5" y="-61" font-family="Helvetica,sans-Serif" font-size="10.00">cstdint</text>
</a>
</g>
</g>
<!-- Node2&#45;&gt;Node9 -->
<g id="edge8_Node000002_Node000009" class="edge">
<title>Node2&#45;&gt;Node9</title>
<g id="a_edge8_Node000002_Node000009"><a xlink:title=" ">
<path fill="none" stroke="#63b8ff" d="M318.25,-110.09C340.95,-101.46 375.39,-88.36 400.9,-78.66"/>
<polygon fill="#63b8ff" stroke="#63b8ff" points="402.05,-81.96 410.15,-75.14 399.56,-75.42 402.05,-81.96"/>
</a>
</g>
</g>
<!-- Node2&#45;&gt;Node10 -->
<g id="edge9_Node000002_Node000010" class="edge">
<title>Node2&#45;&gt;Node10</title>
<g id="a_edge9_Node000002_Node000010"><a xlink:title=" ">
<path fill="none" stroke="#63b8ff" d="M340.32,-111.52C386.04,-103.71 458.53,-90.74 530.65,-74.78"/>
<polygon fill="#63b8ff" stroke="#63b8ff" points="531.28,-78.22 540.28,-72.62 529.76,-71.39 531.28,-78.22"/>
</a>
</g>
</g>
<!-- Node11 -->
<g id="Node000011" class="node">
<title>Node11</title>
<g id="a_Node000011"><a xlink:title=" ">
<polygon fill="#e0e0e0" stroke="#999999" points="523.62,-74.5 475.38,-74.5 475.38,-55.25 523.62,-55.25 523.62,-74.5"/>
<text text-anchor="middle" x="499.5" y="-61" font-family="Helvetica,sans-Serif" font-size="10.00">Wave.h</text>
</a>
</g>
</g>
<!-- Node2&#45;&gt;Node11 -->
<g id="edge11_Node000002_Node000011" class="edge">
<title>Node2&#45;&gt;Node11</title>
<g id="a_edge11_Node000002_Node000011"><a xlink:title=" ">
<path fill="none" stroke="#63b8ff" d="M329.42,-110.08C361.87,-101.68 411.84,-88.73 463.86,-75.18"/>
<polygon fill="#63b8ff" stroke="#63b8ff" points="464.73,-78.57 473.53,-72.67 462.97,-71.8 464.73,-78.57"/>
</a>
</g>
</g>
<!-- Node10&#45;&gt;Node5 -->
<g id="edge10_Node000010_Node000005" class="edge">
<title>Node10&#45;&gt;Node5</title>
<g id="a_edge10_Node000010_Node000005"><a xlink:title=" ">
<path fill="none" stroke="#63b8ff" d="M541.71,-57.63C538.61,-56.83 535.48,-56.02 532.5,-55.25 487.08,-43.59 435.02,-30.5 399.18,-21.53"/>
<polygon fill="#63b8ff" stroke="#63b8ff" points="400.16,-18.16 389.61,-19.13 398.46,-24.95 400.16,-18.16"/>
</a>
</g>
</g>
</g>
</svg>
